<svg width="22" height="22" viewBox="0 0 22 22" fill="none" xmlns="http://www.w3.org/2000/svg">
<path d="M17.8843 5.36248L12.4393 2.21831C11.5501 1.70498 10.4501 1.70498 9.55176 2.21831L4.11592 5.36248C3.22676 5.87581 2.67676 6.82915 2.67676 7.86498V14.135C2.67676 15.1616 3.22676 16.115 4.11592 16.6375L9.56093 19.7816C10.4501 20.295 11.5501 20.295 12.4484 19.7816L17.8934 16.6375C18.7826 16.1241 19.3326 15.1708 19.3326 14.135V7.86498C19.3234 6.82915 18.7734 5.88498 17.8843 5.36248ZM11.0001 6.72831C12.1826 6.72831 13.1359 7.68165 13.1359 8.86415C13.1359 10.0466 12.1826 11 11.0001 11C9.81759 11 8.86426 10.0466 8.86426 8.86415C8.86426 7.69081 9.81759 6.72831 11.0001 6.72831ZM13.4568 15.2716H8.54342C7.80092 15.2716 7.37009 14.4466 7.78259 13.8325C8.40592 12.9066 9.61592 12.2833 11.0001 12.2833C12.3843 12.2833 13.5943 12.9066 14.2176 13.8325C14.6301 14.4375 14.1901 15.2716 13.4568 15.2716Z" fill="#989898"/>
</svg>
