<svg width="22" height="22" viewBox="0 0 22 22" fill="none" xmlns="http://www.w3.org/2000/svg">
<circle cx="11" cy="11" r="11" fill="#989898"/>
<path d="M5.043 14.063C4.86567 14.063 4.73033 14.014 4.637 13.916C4.54367 13.818 4.497 13.6803 4.497 13.503V9.618C4.497 9.436 4.54367 9.29833 4.637 9.205C4.735 9.11167 4.87267 9.065 5.05 9.065H6.751C7.30167 9.065 7.72633 9.205 8.025 9.485C8.32367 9.76033 8.473 10.1453 8.473 10.64C8.473 11.1347 8.32367 11.522 8.025 11.802C7.72633 12.082 7.30167 12.222 6.751 12.222H5.582V13.503C5.582 13.6803 5.53533 13.818 5.442 13.916C5.35333 14.014 5.22033 14.063 5.043 14.063ZM5.582 11.382H6.569C6.849 11.382 7.06133 11.319 7.206 11.193C7.35533 11.067 7.43 10.8827 7.43 10.64C7.43 10.3973 7.35533 10.2153 7.206 10.094C7.06133 9.97267 6.849 9.912 6.569 9.912H5.582V11.382ZM9.69144 14.063C9.5141 14.063 9.37877 14.014 9.28544 13.916C9.1921 13.818 9.14544 13.6803 9.14544 13.503V9.618C9.14544 9.436 9.1921 9.29833 9.28544 9.205C9.38344 9.11167 9.5211 9.065 9.69844 9.065H11.3994C11.9501 9.065 12.3748 9.198 12.6734 9.464C12.9721 9.73 13.1214 10.101 13.1214 10.577C13.1214 10.885 13.0538 11.151 12.9184 11.375C12.7831 11.599 12.5871 11.7717 12.3304 11.893C12.0784 12.0143 11.7681 12.075 11.3994 12.075L11.4554 11.956H11.7424C11.9384 11.956 12.1088 12.005 12.2534 12.103C12.4028 12.1963 12.5311 12.341 12.6384 12.537L13.0724 13.342C13.1378 13.4587 13.1681 13.573 13.1634 13.685C13.1588 13.797 13.1168 13.888 13.0374 13.958C12.9581 14.028 12.8414 14.063 12.6874 14.063C12.5334 14.063 12.4074 14.0303 12.3094 13.965C12.2161 13.8997 12.1321 13.7993 12.0574 13.664L11.3854 12.425C11.3154 12.2943 11.2291 12.2057 11.1264 12.159C11.0284 12.1123 10.9071 12.089 10.7624 12.089H10.2304V13.503C10.2304 13.6803 10.1838 13.818 10.0904 13.916C10.0018 14.014 9.86877 14.063 9.69144 14.063ZM10.2304 11.305H11.2034C11.4928 11.305 11.7098 11.2467 11.8544 11.13C12.0038 11.0133 12.0784 10.8383 12.0784 10.605C12.0784 10.3763 12.0038 10.2037 11.8544 10.087C11.7098 9.97033 11.4928 9.912 11.2034 9.912H10.2304V11.305ZM16.2743 14.077C15.7889 14.077 15.3619 13.972 14.9933 13.762C14.6293 13.5473 14.3446 13.2487 14.1393 12.866C13.9386 12.4833 13.8383 12.0377 13.8383 11.529C13.8383 11.1417 13.8943 10.794 14.0063 10.486C14.1229 10.1733 14.2886 9.90733 14.5033 9.688C14.7179 9.464 14.9746 9.29133 15.2733 9.17C15.5766 9.04867 15.9103 8.988 16.2743 8.988C16.7689 8.988 17.1983 9.093 17.5623 9.303C17.9263 9.513 18.2086 9.80933 18.4093 10.192C18.6146 10.57 18.7173 11.0133 18.7173 11.522C18.7173 11.9093 18.6589 12.2593 18.5423 12.572C18.4256 12.8847 18.2599 13.153 18.0453 13.377C17.8306 13.601 17.5739 13.7737 17.2753 13.895C16.9766 14.0163 16.6429 14.077 16.2743 14.077ZM16.2743 13.153C16.5496 13.153 16.7829 13.09 16.9743 12.964C17.1703 12.8333 17.3196 12.6467 17.4223 12.404C17.5296 12.1567 17.5833 11.865 17.5833 11.529C17.5833 11.0157 17.4689 10.619 17.2403 10.339C17.0116 10.0543 16.6896 9.912 16.2743 9.912C16.0036 9.912 15.7703 9.975 15.5743 10.101C15.3783 10.227 15.2289 10.4113 15.1263 10.654C15.0236 10.8967 14.9723 11.1883 14.9723 11.529C14.9723 12.0377 15.0866 12.4367 15.3153 12.726C15.5439 13.0107 15.8636 13.153 16.2743 13.153Z" fill="white"/>
</svg>
