<svg width="22" height="22" viewBox="0 0 22 22" fill="none" xmlns="http://www.w3.org/2000/svg">
<path d="M19.25 20.1667H2.75C2.37417 20.1667 2.0625 19.855 2.0625 19.4792C2.0625 19.1034 2.37417 18.7917 2.75 18.7917H19.25C19.6258 18.7917 19.9375 19.1034 19.9375 19.4792C19.9375 19.855 19.6258 20.1667 19.25 20.1667Z" fill="#989898"/>
<path d="M17.435 3.18998C15.6567 1.41165 13.915 1.36581 12.0909 3.18998L10.9817 4.29915C10.89 4.39081 10.8534 4.53748 10.89 4.66581C11.5867 7.09498 13.53 9.03831 15.9592 9.73498C15.9959 9.74415 16.0325 9.75331 16.0692 9.75331C16.17 9.75331 16.2617 9.71665 16.335 9.64331L17.435 8.53415C18.3425 7.63582 18.7825 6.76498 18.7825 5.88498C18.7917 4.97748 18.3517 4.09748 17.435 3.18998Z" fill="#989898"/>
<path d="M14.3091 10.5692C14.0433 10.4408 13.7866 10.3125 13.5391 10.1658C13.3375 10.0467 13.145 9.91834 12.9525 9.78084C12.7966 9.68 12.6133 9.53334 12.4391 9.38667C12.4208 9.3775 12.3566 9.3225 12.2833 9.24917C11.9808 8.9925 11.6416 8.6625 11.3391 8.29584C11.3116 8.2775 11.2658 8.21334 11.2016 8.13084C11.11 8.02084 10.9541 7.8375 10.8166 7.62667C10.7066 7.48917 10.5783 7.2875 10.4591 7.08584C10.3125 6.83834 10.1841 6.59084 10.0558 6.33417C10.0457 6.31249 10.0357 6.29087 10.0259 6.2693C9.87532 5.93736 9.44119 5.83961 9.18344 6.09737L3.9783 11.3025C3.85913 11.4217 3.74913 11.6508 3.72163 11.8067L3.22663 15.3175C3.13497 15.9408 3.30913 16.5275 3.69413 16.9217C4.02413 17.2425 4.48247 17.4167 4.97747 17.4167C5.08747 17.4167 5.19747 17.4075 5.30747 17.3892L8.82747 16.8942C8.99247 16.8667 9.22163 16.7567 9.33163 16.6375L14.5296 11.4395C14.7892 11.18 14.6915 10.7339 14.3544 10.5887C14.3394 10.5822 14.3243 10.5757 14.3091 10.5692Z" fill="#989898"/>
</svg>
