<svg width="22" height="22" viewBox="0 0 22 22" fill="none" xmlns="http://www.w3.org/2000/svg">
<path d="M6.11433 12.8334H3.66683C2.6585 12.8334 1.8335 13.6584 1.8335 14.6667V19.25C1.8335 19.7542 2.246 20.1667 2.75016 20.1667H6.11433C6.6185 20.1667 7.031 19.7542 7.031 19.25V13.75C7.031 13.2459 6.6185 12.8334 6.11433 12.8334Z" fill="#989898"/>
<path d="M12.2193 9.16663H9.77181C8.76348 9.16663 7.93848 9.99163 7.93848 11V19.25C7.93848 19.7541 8.35098 20.1666 8.85514 20.1666H13.136C13.6401 20.1666 14.0526 19.7541 14.0526 19.25V11C14.0526 9.99163 13.2368 9.16663 12.2193 9.16663Z" fill="#989898"/>
<path d="M18.3334 15.5834H15.8859C15.3817 15.5834 14.9692 15.9959 14.9692 16.5V19.25C14.9692 19.7542 15.3817 20.1667 15.8859 20.1667H19.2501C19.7542 20.1667 20.1667 19.7542 20.1667 19.25V17.4167C20.1667 16.4084 19.3417 15.5834 18.3334 15.5834Z" fill="#989898"/>
<path d="M13.7592 4.44586C14.0433 4.16169 14.1533 3.82252 14.0617 3.52919C13.97 3.23586 13.6858 3.02502 13.2825 2.96086L12.4025 2.81419C12.3658 2.81419 12.2833 2.75002 12.265 2.71336L11.7792 1.74169C11.4125 0.999189 10.5783 0.999189 10.2117 1.74169L9.72582 2.71336C9.71665 2.75002 9.63415 2.81419 9.59749 2.81419L8.71749 2.96086C8.31415 3.02502 8.03915 3.23586 7.93832 3.52919C7.84665 3.82252 7.95665 4.16169 8.24082 4.44586L8.91915 5.13336C8.95582 5.16086 8.98332 5.27086 8.97415 5.30752L8.78165 6.15086C8.63499 6.78336 8.87332 7.06752 9.02915 7.17752C9.18499 7.28752 9.52415 7.43419 10.0833 7.10419L10.9083 6.61836C10.945 6.59086 11.0642 6.59086 11.1008 6.61836L11.9167 7.10419C12.1733 7.26002 12.3842 7.30586 12.5492 7.30586C12.7417 7.30586 12.8792 7.23252 12.9617 7.17752C13.1175 7.06752 13.3558 6.78336 13.2092 6.15086L13.0167 5.30752C13.0075 5.26169 13.035 5.16086 13.0717 5.13336L13.7592 4.44586Z" fill="#989898"/>
</svg>
