<svg width="22" height="22" viewBox="0 0 22 22" fill="none" xmlns="http://www.w3.org/2000/svg">
<path d="M19.314 4.79421C17.8382 4.64754 16.3624 4.53754 14.8774 4.45504V4.44587L14.6757 3.25421C14.5382 2.41087 14.3365 1.14587 12.1915 1.14587H9.78986C7.65403 1.14587 7.45236 2.35587 7.30569 3.24504L7.11319 4.41837C6.26069 4.47337 5.40819 4.52837 4.55569 4.61087L2.68569 4.79421C2.30069 4.83087 2.02569 5.17004 2.06236 5.54587C2.09903 5.92171 2.42903 6.19671 2.81403 6.16004L4.68403 5.97671C9.48736 5.50004 14.3274 5.68337 19.1857 6.16921C19.2132 6.16921 19.2315 6.16921 19.259 6.16921C19.6074 6.16921 19.9099 5.90337 19.9465 5.54587C19.974 5.17004 19.699 4.83087 19.314 4.79421Z" fill="#989898"/>
<path d="M17.6276 7.46163C17.4076 7.23246 17.1051 7.10413 16.7934 7.10413H5.20676C4.8951 7.10413 4.58343 7.23246 4.3726 7.46163C4.16176 7.69079 4.0426 8.00246 4.06093 8.32329L4.62926 17.7283C4.7301 19.1216 4.85843 20.8633 8.0576 20.8633H13.9426C17.1418 20.8633 17.2701 19.1308 17.3709 17.7283L17.9393 8.33246C17.9576 8.00246 17.8384 7.69079 17.6276 7.46163ZM12.5218 16.2708H9.46926C9.09343 16.2708 8.78176 15.9591 8.78176 15.5833C8.78176 15.2075 9.09343 14.8958 9.46926 14.8958H12.5218C12.8976 14.8958 13.2093 15.2075 13.2093 15.5833C13.2093 15.9591 12.8976 16.2708 12.5218 16.2708ZM13.2918 12.6041H8.70843C8.3326 12.6041 8.02093 12.2925 8.02093 11.9166C8.02093 11.5408 8.3326 11.2291 8.70843 11.2291H13.2918C13.6676 11.2291 13.9793 11.5408 13.9793 11.9166C13.9793 12.2925 13.6676 12.6041 13.2918 12.6041Z" fill="#989898"/>
</svg>
