<svg width="15" height="7" viewBox="0 0 15 7" fill="none" xmlns="http://www.w3.org/2000/svg">
<path d="M1.043 6.063C0.865667 6.063 0.730333 6.014 0.637 5.916C0.543667 5.818 0.497 5.68033 0.497 5.503V1.618C0.497 1.436 0.543667 1.29833 0.637 1.205C0.735 1.11167 0.872667 1.065 1.05 1.065H2.751C3.30167 1.065 3.72633 1.205 4.025 1.485C4.32367 1.76033 4.473 2.14533 4.473 2.64C4.473 3.13467 4.32367 3.522 4.025 3.802C3.72633 4.082 3.30167 4.222 2.751 4.222H1.582V5.503C1.582 5.68033 1.53533 5.818 1.442 5.916C1.35333 6.014 1.22033 6.063 1.043 6.063ZM1.582 3.382H2.569C2.849 3.382 3.06133 3.319 3.206 3.193C3.35533 3.067 3.43 2.88267 3.43 2.64C3.43 2.39733 3.35533 2.21533 3.206 2.094C3.06133 1.97267 2.849 1.912 2.569 1.912H1.582V3.382ZM5.69144 6.063C5.5141 6.063 5.37877 6.014 5.28544 5.916C5.1921 5.818 5.14544 5.68033 5.14544 5.503V1.618C5.14544 1.436 5.1921 1.29833 5.28544 1.205C5.38344 1.11167 5.5211 1.065 5.69844 1.065H7.39944C7.9501 1.065 8.37477 1.198 8.67344 1.464C8.9721 1.73 9.12144 2.101 9.12144 2.577C9.12144 2.885 9.05377 3.151 8.91844 3.375C8.7831 3.599 8.5871 3.77167 8.33044 3.893C8.07844 4.01433 7.7681 4.075 7.39944 4.075L7.45544 3.956H7.74244C7.93844 3.956 8.10877 4.005 8.25344 4.103C8.40277 4.19633 8.5311 4.341 8.63844 4.537L9.07244 5.342C9.13777 5.45867 9.1681 5.573 9.16344 5.685C9.15877 5.797 9.11677 5.888 9.03744 5.958C8.9581 6.028 8.84144 6.063 8.68744 6.063C8.53344 6.063 8.40744 6.03033 8.30944 5.965C8.2161 5.89967 8.1321 5.79933 8.05744 5.664L7.38544 4.425C7.31544 4.29433 7.2291 4.20567 7.12644 4.159C7.02844 4.11233 6.9071 4.089 6.76244 4.089H6.23044V5.503C6.23044 5.68033 6.18377 5.818 6.09044 5.916C6.00177 6.014 5.86877 6.063 5.69144 6.063ZM6.23044 3.305H7.20344C7.49277 3.305 7.70977 3.24667 7.85444 3.13C8.00377 3.01333 8.07844 2.83833 8.07844 2.605C8.07844 2.37633 8.00377 2.20367 7.85444 2.087C7.70977 1.97033 7.49277 1.912 7.20344 1.912H6.23044V3.305ZM12.2743 6.077C11.7889 6.077 11.3619 5.972 10.9933 5.762C10.6293 5.54733 10.3446 5.24867 10.1393 4.866C9.93861 4.48333 9.83828 4.03767 9.83828 3.529C9.83828 3.14167 9.89428 2.794 10.0063 2.486C10.1229 2.17333 10.2886 1.90733 10.5033 1.688C10.7179 1.464 10.9746 1.29133 11.2733 1.17C11.5766 1.04867 11.9103 0.988 12.2743 0.988C12.7689 0.988 13.1983 1.093 13.5623 1.303C13.9263 1.513 14.2086 1.80933 14.4093 2.192C14.6146 2.57 14.7173 3.01333 14.7173 3.522C14.7173 3.90933 14.6589 4.25933 14.5423 4.572C14.4256 4.88467 14.2599 5.153 14.0453 5.377C13.8306 5.601 13.5739 5.77367 13.2753 5.895C12.9766 6.01633 12.6429 6.077 12.2743 6.077ZM12.2743 5.153C12.5496 5.153 12.7829 5.09 12.9743 4.964C13.1703 4.83333 13.3196 4.64667 13.4223 4.404C13.5296 4.15667 13.5833 3.865 13.5833 3.529C13.5833 3.01567 13.4689 2.619 13.2403 2.339C13.0116 2.05433 12.6896 1.912 12.2743 1.912C12.0036 1.912 11.7703 1.975 11.5743 2.101C11.3783 2.227 11.2289 2.41133 11.1263 2.654C11.0236 2.89667 10.9723 3.18833 10.9723 3.529C10.9723 4.03767 11.0866 4.43667 11.3153 4.726C11.5439 5.01067 11.8636 5.153 12.2743 5.153Z" fill="white"/>
</svg>
