<svg width="22" height="22" viewBox="0 0 22 22" fill="none" xmlns="http://www.w3.org/2000/svg">
<path d="M17.7281 13.2825L16.8115 11.7609C16.619 11.4217 16.4448 10.78 16.4448 10.4042V8.08504C16.4448 5.93087 15.1798 4.07004 13.3556 3.19921C12.879 2.35587 11.999 1.83337 10.9906 1.83337C9.99145 1.83337 9.09312 2.37421 8.61645 3.22671C6.82895 4.11587 5.59145 5.95837 5.59145 8.08504V10.4042C5.59145 10.78 5.41728 11.4217 5.22478 11.7517L4.29895 13.2825C3.93228 13.8967 3.84978 14.575 4.07895 15.1984C4.29895 15.8125 4.82145 16.2892 5.49978 16.5184C7.27812 17.1234 9.14812 17.4167 11.0181 17.4167C12.8881 17.4167 14.7581 17.1234 16.5365 16.5275C17.1781 16.3167 17.6731 15.8309 17.9115 15.1984C18.1498 14.5659 18.0856 13.8692 17.7281 13.2825Z" fill="#989898"/>
<path d="M13.5942 18.3425C13.2092 19.4059 12.1917 20.1667 11 20.1667C10.2759 20.1667 9.56087 19.8734 9.05671 19.3509C8.76337 19.0759 8.54337 18.7092 8.41504 18.3334C8.53421 18.3517 8.65337 18.3609 8.78171 18.3792C8.99254 18.4067 9.21254 18.4342 9.43254 18.4525C9.95504 18.4984 10.4867 18.5259 11.0184 18.5259C11.5409 18.5259 12.0634 18.4984 12.5767 18.4525C12.7692 18.4342 12.9617 18.425 13.145 18.3975C13.2917 18.3792 13.4384 18.3609 13.5942 18.3425Z" fill="#989898"/>
</svg>
