<svg width="19" height="20" viewBox="0 0 19 20" fill="none" xmlns="http://www.w3.org/2000/svg">
<path d="M3.31704 2.94383H15.6832V17.0562H3.31704V2.94383ZM18.4541 13.236C19.0577 13.787 19.0577 14.6804 18.4541 15.2321L18.189 15.4742C18.0692 15.5835 18.0019 15.7317 18.0019 15.887V17.0562C18.0019 18.2254 16.9639 19.173 15.6832 19.173H14.4026C14.2325 19.173 14.0702 19.2344 13.9497 19.3445L13.6846 19.5865C13.3824 19.8624 12.9874 20 12.5917 20C12.196 20 11.8003 19.8624 11.4988 19.5865C11.3736 19.4722 11.2098 19.415 11.0459 19.415C10.8821 19.415 10.7182 19.4722 10.593 19.5865C10.2908 19.8624 9.89586 20 9.50014 20C9.10443 20 8.70871 19.8624 8.40728 19.5865C8.28207 19.4722 8.11822 19.415 7.95437 19.415C7.79052 19.415 7.62666 19.4722 7.50146 19.5865C7.19926 19.8624 6.80431 20 6.40859 20C6.01287 20 5.61716 19.8624 5.31573 19.5865L5.05063 19.3445C4.93006 19.2344 4.76775 19.173 4.59772 19.173H3.31704C2.03637 19.173 0.998378 18.2254 0.998378 17.0562V15.887C0.998378 15.7317 0.931137 15.5835 0.810566 15.4735L0.545466 15.2314C-0.0581598 14.6804 -0.0581598 13.787 0.545466 13.236L0.672219 13.1202C0.866987 12.9424 0.915679 12.6708 0.792017 12.4457L0.489818 11.8932C-0.163273 10.7014 -0.163273 9.29862 0.489818 8.10683L0.792017 7.55433C0.914906 7.32924 0.866987 7.05758 0.672219 6.87976L0.546238 6.76475C-0.057387 6.21366 -0.057387 5.31964 0.546238 4.76856L0.811339 4.52653C0.931137 4.41716 0.998378 4.26828 0.998378 4.11304V2.94383C0.998378 1.77463 2.03637 0.826983 3.31704 0.826983H4.59772C4.76775 0.826983 4.93006 0.765594 5.05063 0.655518L5.31573 0.413491C5.61716 0.138301 6.01287 0 6.40859 0C6.80431 0 7.20003 0.137595 7.50146 0.413491C7.62666 0.527801 7.79052 0.584956 7.95437 0.584956C8.11822 0.584956 8.28207 0.527801 8.40728 0.413491C8.70871 0.138301 9.10443 0 9.50014 0C9.89586 0 10.2916 0.137595 10.593 0.413491C10.7182 0.527801 10.8821 0.584956 11.0459 0.584956C11.2098 0.584956 11.3736 0.527801 11.4988 0.413491C11.8003 0.138301 12.196 0 12.5917 0C12.9874 0 13.3831 0.137595 13.6846 0.413491L13.9497 0.655518C14.0702 0.765594 14.2325 0.826983 14.4026 0.826983H15.6832C16.9639 0.826983 18.0019 1.77463 18.0019 2.94383V4.11304C18.0019 4.26828 18.0692 4.41645 18.1897 4.52653L18.4548 4.76856C19.0584 5.31964 19.0584 6.21295 18.4548 6.76404L18.3281 6.87976C18.1333 7.05758 18.0846 7.32924 18.2083 7.55433L18.5105 8.10683C19.1628 9.29862 19.1636 10.7014 18.5105 11.8932L18.2075 12.4457C18.0846 12.6708 18.1325 12.9424 18.3273 13.1202L18.4541 13.236ZM16.4561 2.94383C16.4561 2.55433 16.1099 2.23822 15.6832 2.23822H3.31704C2.89041 2.23822 2.54415 2.55433 2.54415 2.94383V17.0562C2.54415 17.4457 2.89041 17.7618 3.31704 17.7618H15.6832C16.1099 17.7618 16.4561 17.4457 16.4561 17.0562V2.94383Z" fill="#989898"/>
</svg>
