<svg width="22" height="22" viewBox="0 0 22 22" fill="none" xmlns="http://www.w3.org/2000/svg">
<path d="M15.5835 1.83337H6.41683C3.88683 1.83337 1.8335 3.87754 1.8335 6.39837V11.88V12.7967C1.8335 15.3175 3.88683 17.3617 6.41683 17.3617H7.79183C8.03933 17.3617 8.36933 17.5267 8.52516 17.7284L9.90016 19.5525C10.5052 20.3592 11.4952 20.3592 12.1002 19.5525L13.4752 17.7284C13.6493 17.4992 13.9243 17.3617 14.2085 17.3617H15.5835C18.1135 17.3617 20.1668 15.3175 20.1668 12.7967V6.39837C20.1668 3.87754 18.1135 1.83337 15.5835 1.83337ZM7.3335 11C6.82016 11 6.41683 10.5875 6.41683 10.0834C6.41683 9.57921 6.82933 9.16671 7.3335 9.16671C7.83766 9.16671 8.25016 9.57921 8.25016 10.0834C8.25016 10.5875 7.84683 11 7.3335 11ZM11.0002 11C10.4868 11 10.0835 10.5875 10.0835 10.0834C10.0835 9.57921 10.496 9.16671 11.0002 9.16671C11.5043 9.16671 11.9168 9.57921 11.9168 10.0834C11.9168 10.5875 11.5135 11 11.0002 11ZM14.6668 11C14.1535 11 13.7502 10.5875 13.7502 10.0834C13.7502 9.57921 14.1627 9.16671 14.6668 9.16671C15.171 9.16671 15.5835 9.57921 15.5835 10.0834C15.5835 10.5875 15.1802 11 14.6668 11Z" fill="#989898"/>
</svg>
